<svg xmlns="http://www.w3.org/2000/svg" xmlns:xlink="http://www.w3.org/1999/xlink" width="88" height="19" viewBox="0 0 88 19">
  <defs>
    <clipPath id="clip-logo-mynotes">
      <rect width="88" height="19"/>
    </clipPath>
  </defs>
  <g id="logo-mynotes" clip-path="url(#clip-logo-mynotes)">
    <g id="Group_7" data-name="Group 7">
      <g id="Group_6" data-name="Group 6" transform="translate(-231.939 -371.667)">
        <path id="Path_1" data-name="Path 1" d="M338.164,385.74v10.6h-1.742v-7.559l-3.227,5.332h-.211l-3.228-5.348v7.575h-1.742v-10.6h1.878l3.2,5.3,3.208-5.3Z" transform="translate(-67.325 -9.899)" fill="#fff"/>
        <path id="Path_2" data-name="Path 2" d="M372.05,395.956h1.742l-2.909,7.817q-1.091,2.938-3.7,2.787v-1.53a1.772,1.772,0,0,0,1.242-.326,2.656,2.656,0,0,0,.773-1.159l.076-.152-3.212-7.438h1.788l2.259,5.5Z" transform="translate(-94.092 -17.085)" fill="#fff"/>
        <path id="Path_3" data-name="Path 3" d="M402.309,385.74h1.742v10.6h-1.363l-5-7.2v7.2h-1.742v-10.6h1.329l5.033,7.245Z" transform="translate(-115.11 -9.899)" fill="#fff"/>
        <path id="Path_4" data-name="Path 4" d="M432.635,403.26a3.882,3.882,0,0,1-2.833-1.151,4.023,4.023,0,0,1,0-5.666,4.07,4.07,0,0,1,5.673,0,3.984,3.984,0,0,1-2.84,6.817Zm-1.682-2.272a2.414,2.414,0,0,0,3.363,0,2.49,2.49,0,0,0,0-3.423,2.414,2.414,0,0,0-3.363,0,2.49,2.49,0,0,0,0,3.423Z" transform="translate(-138.104 -16.618)" fill="#fff"/>
        <path id="Path_5" data-name="Path 5" d="M462.709,392.5h-1.879v3.635a.906.906,0,0,0,.212.674.95.95,0,0,0,.629.227q.416.023,1.038-.007V398.5a4.08,4.08,0,0,1-2.7-.326,2.285,2.285,0,0,1-.818-2.037V392.5H457.8v-1.576h1.394V389.29l1.636-.484v2.121h1.879Z" transform="translate(-158.619 -12.056)" fill="#fff"/>
        <path id="Path_6" data-name="Path 6" d="M478.616,399.973a2.079,2.079,0,0,0,.833,1.326,2.676,2.676,0,0,0,1.591.462,2.222,2.222,0,0,0,1.955-.939l1.348.788a3.749,3.749,0,0,1-3.318,1.651,4.049,4.049,0,0,1-2.984-1.128,3.857,3.857,0,0,1-1.136-2.856,3.9,3.9,0,0,1,1.121-2.841,3.856,3.856,0,0,1,2.878-1.144,3.542,3.542,0,0,1,2.734,1.167,4.043,4.043,0,0,1,1.068,2.832,5.021,5.021,0,0,1-.061.682Zm-.015-1.333h4.453a2.106,2.106,0,0,0-2.166-1.863,2.3,2.3,0,0,0-1.515.5A2.255,2.255,0,0,0,478.6,398.64Z" transform="translate(-172.057 -16.618)" fill="#fff"/>
        <path id="Path_7" data-name="Path 7" d="M507.324,397.57a.657.657,0,0,0,.42.591,6.194,6.194,0,0,0,1.008.4l1.2.371a2.082,2.082,0,0,1,1.03.7,2.191,2.191,0,0,1-.428,3.006,3.455,3.455,0,0,1-2.113.621,3.746,3.746,0,0,1-1.924-.469,2.754,2.754,0,0,1-1.167-1.3l1.409-.818a1.607,1.607,0,0,0,1.682,1.091q1.288,0,1.288-.849a.673.673,0,0,0-.416-.591,5.485,5.485,0,0,0-1-.408l-1.2-.371a2.155,2.155,0,0,1-1.033-.682,1.866,1.866,0,0,1-.417-1.25,2.047,2.047,0,0,1,.8-1.681,3.063,3.063,0,0,1,1.977-.636,3.338,3.338,0,0,1,1.674.416,2.841,2.841,0,0,1,1.129,1.159l-1.379.773a1.615,1.615,0,0,0-2.212-.661A.657.657,0,0,0,507.324,397.57Z" transform="translate(-192.069 -16.618)" fill="#fff"/>
        <path id="Path_8" data-name="Path 8" d="M242.656,391.85h-7.389a2.966,2.966,0,0,0-2.966,2.966v5.556a4.449,4.449,0,0,0,4.449,4.449h5.906a2.966,2.966,0,0,0,2.966-2.966v-7.039A2.966,2.966,0,0,0,242.656,391.85Z" transform="translate(0 -14.197)" fill="#ffe210"/>
        <path id="Path_9" data-name="Path 9" d="M260.478,371.667h-5.906a2.966,2.966,0,0,0-2.966,2.966v7.039a2.949,2.949,0,0,0,.384,1.457,6.6,6.6,0,0,0-.035.675v3.829a2.966,2.966,0,0,0,2.966,2.966h5.556a4.449,4.449,0,0,0,4.449-4.449V376.116A4.449,4.449,0,0,0,260.478,371.667Z" transform="translate(-13.579)" fill="#9c10ff"/>
        <path id="Path_10" data-name="Path 10" d="M242.307,371.667h-5.556a4.449,4.449,0,0,0-4.449,4.449v5.905a2.966,2.966,0,0,0,2.966,2.966h3.48a6.525,6.525,0,0,0,6.525-6.525v-3.829A2.966,2.966,0,0,0,242.307,371.667Z" transform="translate(0)" fill="#ffe210"/>
      </g>
    </g>
  </g>
</svg>
